<svg xmlns="http://www.w3.org/2000/svg" enable-background="new 0 0 512 512" viewBox="0 0 512 512" id="employee"><path fill="#a6e1fb" d="M473.614,507.986l-1.363-55.402c-4.996-80.429-73.768-143.206-156.971-143.206H196.718c-83.204,0-151.976,62.776-156.971,143.206l-1.363,55.402H473.614z"></path><polygon fill="#d3f0fd" points="39.143 487.423 38.384 507.986 473.614 507.986 472.854 487.423"></polygon><polygon fill="#7bde9e" points="266.38 399.731 282.839 507.986 229.168 507.986 245.651 399.731"></polygon><polygon fill="#50d27e" points="282.832 507.997 229.152 507.997 232.272 487.438 279.712 487.438"></polygon><polygon fill="#a7e9bf" points="266.38 399.731 294.499 362.545 217.499 362.545 245.651 399.731"></polygon><path fill="#7ad1f9" d="M473.603,507.997h-0.757l-0.577-23.163c-5.024-80.427-73.802-143.203-156.985-143.203H196.712c-83.184,0-151.962,62.776-156.985,143.203l-0.579,23.163h-0.755l1.334-55.396c5.023-80.427,73.801-143.203,156.985-143.203h118.572c83.183,0,151.961,62.776,156.985,143.203L473.603,507.997z"></path><path fill="#fbb381" d="M328.91,242.607v87.667c-13.434,13.433-20.897,20.897-34.331,34.331H217.46c-13.434-13.435-20.996-20.898-34.43-34.331v-87.667H328.91z"></path><path fill="#fa9957" d="M328.912,242.599v29.04l-15.68,15.68c-8.44,8.48-19.841,13.16-31.761,13.16h-51.559c-11.92,0-23.32-4.68-31.8-13.16l-15.08-15.08v-29.64L328.912,242.599L328.912,242.599z"></path><path fill="#50d27e" d="M355.155,311.944l-42.537,75.963c-4.201,10.412-17.512,13.311-25.676,5.679L256,364.598l72.946-84.305L355.155,311.944z"></path><path fill="#4cc3f7" d="M256.001,364.597l-30.941,28.988c-8.164,7.632-21.476,4.733-25.676-5.679l-42.537-75.963l26.208-31.651L256.001,364.597z"></path><path fill="#4cc3f7" d="M355.155,311.944l-42.537,75.963c-4.201,10.412-17.512,13.311-25.676,5.679L256,364.598l72.946-84.305L355.155,311.944z"></path><path fill="#7ad1f9" d="M256.02,364.617l-30.943,28.987c-8.181,7.602-21.473,4.712-25.697-5.691l-42.547-75.981l12.893-15.561l34.901,62.243c4.223,10.404,17.517,13.338,25.696,5.691l14.05-13.16L256.02,364.617z"></path><path fill="#7ad1f9" d="M255.968,364.617l30.943,28.987c8.181,7.602,21.473,4.712,25.697-5.691l42.547-75.981l-12.893-15.561l-34.901,62.243c-4.223,10.404-17.517,13.338-25.696,5.691l-14.05-13.16L255.968,364.617z"></path><path fill="#fcccab" d="M363.279,74.245v127.033c0,11.931-4.719,23.327-13.177,31.784l-36.858,36.859c-8.458,8.459-19.854,13.176-31.784,13.176h-51.549c-11.93,0-23.326-4.718-31.784-13.176l-36.858-36.859c-8.458-8.457-13.177-19.854-13.177-31.784V74.245H363.279z"></path><path fill="#fbb381" d="M363.272,178.118v23.16c0,11.92-4.721,23.32-13.16,31.8l-36.88,36.84c-8.44,8.48-19.841,13.16-31.761,13.16h-51.559c-11.92,0-23.32-4.68-31.8-13.16l-36.84-36.84c-8.48-8.479-13.16-19.88-13.16-31.8v-23.16c0,11.96,4.68,23.36,13.16,31.8l36.84,36.88c8.479,8.44,19.88,13.16,31.8,13.16h51.559c11.92,0,23.32-4.72,31.761-13.16l36.88-36.88C358.551,201.479,363.272,190.078,363.272,178.118z"></path><path fill="#333" d="M255.684,246.585c-8.719,0-17.441-3.316-24.078-9.957c-1.563-1.563-1.563-4.094,0-5.656c1.563-1.562,4.094-1.562,5.656,0c10.152,10.152,26.687,10.16,36.848,0c1.563-1.562,4.094-1.562,5.656,0c1.563,1.563,1.563,4.094,0,5.656C273.125,243.269,264.407,246.585,255.684,246.585z"></path><path fill="#fbb381" d="M148.093 145.268h-7.545c-8.691 0-15.762 7.033-15.762 15.762v15.54c0 8.728 7.07 15.799 15.762 15.799h7.545V145.268zM363.247 145.268h7.545c8.691 0 15.762 7.033 15.762 15.762v15.54c0 8.728-7.07 15.799-15.762 15.799h-7.545V145.268z"></path><g><path fill="#516468" d="M370.827,46.16v99.108h-17.441c-10.252,0-18.551-8.299-18.551-18.551V105.77c0-5.769-4.305-10.74-10.03-11.317c-19.749-2.042-51.969,13.491-69.143,13.491c-17.131,0-49.351-15.533-69.1-13.491c-5.725,0.577-10.03,5.547-10.03,11.317v20.947c0,10.252-8.299,18.551-18.55,18.551h-17.441V53.705c0-9.897,8.032-17.974,17.973-17.974c4.971,0,9.498,2.041,12.738,5.281c0.355,0.355,0.71,0.755,1.021,1.154C174.27,20.775,192.288,4,214.212,4h114.456C351.922,3.999,370.827,22.86,370.827,46.16z"></path></g><g><path fill="#7c8b8d" d="M370.831,46.159v1.64c-7.6-10.96-20.32-18.08-34.599-18.08h-118.44c-18.32,0-33.88,11.68-39.72,27.96c-1.32,3.68-5.2,5.88-8.96,4.76c-2.08-0.64-4.28-0.96-6.561-0.96c-10.8,0-19.8,15.56-22,25.64v-33.4c0-9.92,8-18,17.96-18c4.96,0,9.48,2.04,12.761,5.28c0.359,0.36,0.72,0.8,1,1.16c2-21.36,20-38.16,41.96-38.16h114.439C351.952,3.999,370.831,22.879,370.831,46.159z"></path></g><g><path fill="#333" d="M316.894 166.801c0 7.686-6.274 13.961-13.961 13.961-7.765 0-14.039-6.275-14.039-13.961 0-7.765 6.274-14.039 14.039-14.039C310.62 152.762 316.894 159.037 316.894 166.801zM222.477 166.801c0 7.686-6.274 13.961-13.961 13.961-7.765 0-14.039-6.275-14.039-13.961 0-7.765 6.274-14.039 14.039-14.039C216.203 152.762 222.477 159.037 222.477 166.801z"></path></g><path fill="#333" d="M476.239,452.321c-4.2-67.759-52.76-123.4-117.16-141.08c-0.12-0.641-0.399-1.32-0.84-1.84l-25.32-30.6v-22.92l20-20c9.28-9.239,14.36-21.519,14.36-34.599v-4.911h3.514c10.898,0,19.762-8.883,19.762-19.801v-15.539c0-9.516-6.758-17.474-15.727-19.342V46.16c0-25.453-20.707-46.16-46.16-46.16H214.212c-21.504,0-39.609,14.473-44.699,34.668c-3.309-1.918-7.078-2.937-11-2.937c-12.117,0-21.973,9.855-21.973,21.973v87.977c-8.982,1.857-15.754,9.825-15.754,19.351v15.539c0,10.918,8.863,19.801,19.762,19.801h3.532v4.911c0,13.08,5.12,25.36,14.36,34.599l20.6,20.601v22.399l-25.279,30.52c-0.44,0.56-0.721,1.199-0.801,1.84c-64.479,17.68-113,73.4-117.199,141.24l-1.36,55.399c-0.04,1.08,0.36,2.12,1.12,2.88c0.76,0.801,1.8,1.24,2.88,1.24H473.6c1.08,0,2.119-0.439,2.88-1.24c0.76-0.76,1.159-1.8,1.12-2.88L476.239,452.321z M350.32,312.401l-41.2,73.559c-0.08,0.12-0.16,0.28-0.2,0.44c-1.52,3.72-4.6,6.359-8.479,7.199c-3.92,0.84-7.84-0.199-10.76-2.92l-28.16-26.359l67.359-77.84L350.32,312.401z M272.28,385.321l-7.88,10.399h-16.761l-7.879-10.399l16.24-15.24L272.28,385.321z M187.04,278.801v-14.319l8.24,8.279c9.28,9.24,21.559,14.32,34.64,14.32h51.56c13.04,0,25.359-5.08,34.599-14.32l8.84-8.88v14.96L256,358.481L187.04,278.801z M382.555,161.031v15.539c0,6.508-5.277,11.801-11.762,11.801h-3.514V149.27h3.514C377.277,149.269,382.555,154.546,382.555,161.031z M144.54,53.703c0-7.703,6.27-13.973,13.973-13.973c3.742,0,7.258,1.461,9.91,4.109c0.246,0.246,0.488,0.52,0.703,0.793c1.016,1.293,2.703,1.836,4.277,1.367c1.57-0.461,2.703-1.832,2.855-3.465C178.095,22.848,194.411,8,214.212,8h114.457c21.043,0,38.16,17.117,38.16,38.16v95.109h-3.582h-9.859c-8.023,0-14.551-6.527-14.551-14.551v-20.949c0-7.937-5.859-14.512-13.621-15.297c-1.363-0.141-2.773-0.207-4.219-0.207c-11.004,0-24.215,3.824-37.039,7.535c-10.918,3.16-21.226,6.145-28.297,6.145c-7.043,0-17.336-2.98-28.234-6.137c-14.516-4.203-29.535-8.559-41.265-7.336c-7.77,0.785-13.629,7.359-13.629,15.297v20.949c0,8.023-6.527,14.551-14.551,14.551h-9.891h-3.551L144.54,53.703L144.54,53.703z M140.548,188.37c-6.484,0-11.762-5.293-11.762-11.801V161.03c0-6.484,5.277-11.762,11.762-11.762h3.532v39.101L140.548,188.37L140.548,188.37z M164.08,230.241c-7.72-7.76-12-18.04-12-28.96v-8.858c0-0.019,0.011-0.034,0.011-0.053v-43.101h5.891c12.434,0,22.551-10.117,22.551-22.551v-20.949c0-3.75,2.824-6.973,6.441-7.336c10.227-1.094,24.449,3.07,38.226,7.059c11.461,3.32,22.285,6.453,30.461,6.453c8.203,0,19.043-3.137,30.523-6.461c13.769-3.98,28-8.105,38.219-7.051c3.609,0.363,6.434,3.586,6.434,7.336v20.949c0,12.434,10.117,22.551,22.551,22.551h5.859v43.101c0,0.059,0.031,0.106,0.033,0.164v8.747c0,10.92-4.28,21.2-12,28.96l-36.88,36.84c-7.72,7.76-18,12-28.92,12h-51.56c-10.96,0-21.239-4.24-28.96-12L164.08,230.241z M183.12,286.481l67.36,77.84l-28.16,26.359c-2.92,2.721-6.84,3.76-10.76,2.92c-3.88-0.84-6.96-3.479-8.48-7.199c-0.04-0.16-0.12-0.32-0.2-0.44l-41.199-73.559L183.12,286.481z M113.88,504v-66.04c0-2.2-1.8-4-4-4c-2.199,0-4,1.8-4,4V504H42.481l1.239-51.16c4.041-64.599,50.64-117.639,112.36-134.08l39.681,70.881c2.52,6,7.76,10.359,14.079,11.76c1.44,0.319,2.88,0.479,4.32,0.479c5,0,9.88-1.88,13.64-5.36l6.08-5.72l7.561,10L225.719,504H113.88z M233.839,504l15.24-100.28h13.88L278.2,504H233.839z M406.119,504v-66.04c0-2.2-1.8-4-4-4c-2.24,0-4,1.8-4,4V504H286.28L270.6,400.8l7.52-10l6.08,5.72c3.76,3.48,8.64,5.36,13.64,5.36c1.44,0,2.88-0.16,4.32-0.479c6.32-1.4,11.56-5.76,14.08-11.76l39.68-70.881c61.761,16.4,108.32,69.44,112.32,133.919l1.28,51.32h-63.401V504z"></path><g><rect width="73.577" height="24.93" x="304.249" y="446.746" fill="#a7e9bf"></rect></g><g><path fill="#7bde9e" d="M377.831,446.758v24.92h-73.599v-11.08h53.84c5.52,0,10-4.48,10-10v-3.84L377.831,446.758L377.831,446.758z"></path></g><g><path fill="#333" d="M377.828,475.678H304.25c-2.211,0-4-1.789-4-4v-24.934c0-2.211,1.789-4,4-4h73.578c2.211,0,4,1.789,4,4v24.934C381.828,473.889,380.039,475.678,377.828,475.678z M308.25,467.678h65.578v-16.934H308.25V467.678z"></path></g></svg>